{"title":"Goreyan Nu Daffa Karo (2014) 720p - x264 [DDR-ExclusivE]","uid":11469966,"size":1608338017,"categoryP":"video","categoryS":"hd___movies","magnet":"?xt=urn:btih:eac2028d86ca353a9799b526a2545c81932a31a4&amp;dn=Goreyan+Nu+Daffa+Karo+%282014%29+720p+-+x264+%5BDDR-ExclusivE%5D&amp;tr=udp%3A%2F%2Ftracker.openbittorrent.com%3A80&amp;tr=udp%3A%2F%2Fopen.demonii.com%3A1337&amp;tr=udp%3A%2F%2Ftracker.coppersurfer.tk%3A6969&amp;tr=udp%3A%2F%2Fexodus.desync.com%3A6969","seeders":4,"leechers":4,"uploader":"SaM","files":-1,"time":1416071835,"description":"Movie Info\n---------------------------------------------------------------------------------------------------------------------------------------\n\nMovie Name : Goreyan Nu Daffa Karo\nStarring : Amrinder Gill, Amrit Maghera, Yograj Singh, Aman Khatkar, Binnu Dhillon , Rana Ranbir, Karamjit Anmol\nDirected : Pankaj Batra\nProducer : Suresh Kumar, Monty Shoor, Sukhjinder Bhachoo &amp; Aman Khatkar\nIMDB : http://www.imdb.com/title/tt3971944/\nMovie Release Date : 12 September 2014\nRipper : AnMoL\nSource : DVD9 My Own Collection\nAudio : Punjabi\nSubtitle : English\n\n---------------------------------------------------------------------------------------------------------------------------------------\nTech Info\n---------------------------------------------------------------------------------------------------------------------------------------\n\nFormat : Matroska\nFormat version : Version 2\nFile size : 1.50 GiB\nDuration : 2h 14mn\nOverall bit rate : 1 598 Kbps\n\nVideo\nID : 1\nFormat : AVC\nFormat/Info : Advanced Video Codec\nFormat profile : &lt;a class=&quot;__cf_email__&quot; href=&quot;/cdn-cgi/l/email-protection&quot; data-cfemail=&quot;ca82a3ada28a86fee4fb&quot;&gt;[email&amp;#160;protected]&lt;/a&gt;&lt;script cf-hash='f9e31' type=&quot;text/javascript&quot;&gt;\n/* &lt;![CDATA[ */!function(){try{var t=&quot;currentScript&quot;in document?document.currentScript:function(){for(var t=document.getElementsByTagName(&quot;script&quot;),e=t.length;e--;)if(t[e].getAttribute(&quot;cf-hash&quot;))return t[e]}();if(t&amp;&amp;t.previousSibling){var e,r,n,i,c=t.previousSibling,a=c.getAttribute(&quot;data-cfemail&quot;);if(a){for(e=&quot;&quot;,r=parseInt(a.substr(0,2),16),n=2;a.length-n;n+=2)i=parseInt(a.substr(n,2),16)^r,e+=String.fromCharCode(i);e=document.createTextNode(e),c.parentNode.replaceChild(e,c)}}}catch(u){}}();/* ]]&gt; */&lt;/script&gt;\nFormat settings, CABAC : Yes\nFormat settings, ReFrames : 8 frames\nCodec ID : V_MPEG4/ISO/AVC\nDuration : 2h 14mn\nBit rate : 1 149 Kbps\nWidth : 1 280 pixels\nHeight : 544 pixels\nDisplay aspect ratio : 2.35:1\nFrame rate mode : Constant\nFrame rate : 23.976 fps\nColor space : YUV\nChroma subsampling : 4:2:0\nBit depth : 8 bits\nScan type : Progressive\nBits/(Pixel*Frame) : 0.069\nStream size : 1.05 GiB (70%)\n\nAudio\nID : 2\nFormat : AC-3\nFormat/Info : Audio Coding 3\nMode extension : CM (complete main)\nFormat settings, Endianness : Big\nCodec ID : A_AC3\nDuration : 2h 14mn\nBit rate mode : Constant\nBit rate : 448 Kbps\nChannel(s) : 6 channels\nChannel positions : Front: L C R, Side: L R, LFE\nSampling rate : 48.0 KHz\nBit depth : 16 bits\nCompression mode : Lossy\nStream size : 430 MiB (28%)\n\n---------------------------------------------------------------------------------------------------------------------------------------\nScreen Shot\n---------------------------------------------------------------------------------------------------------------------------------------\n &lt;a href=&quot;\nhttp://i.imgur.com/wMel4Mt.png&quot; rel=&quot;nofollow&quot; target=&quot;_NEW&quot;&gt;\nhttp://i.imgur.com/wMel4Mt.png&lt;/a&gt; &lt;a href=&quot;\nhttp://i.imgur.com/HWp8Aru.png&quot; rel=&quot;nofollow&quot; target=&quot;_NEW&quot;&gt;\nhttp://i.imgur.com/HWp8Aru.png&lt;/a&gt; &lt;a href=&quot;\nhttp://i.imgur.com/zbvAPwy.png&quot; rel=&quot;nofollow&quot; target=&quot;_NEW&quot;&gt;\nhttp://i.imgur.com/zbvAPwy.png&lt;/a&gt; &lt;a href=&quot;\nhttp://i.imgur.com/jDt6XfY.png&quot; rel=&quot;nofollow&quot; target=&quot;_NEW&quot;&gt;\nhttp://i.imgur.com/jDt6XfY.png&lt;/a&gt; &lt;a href=&quot;\nhttp://i.imgur.com/r9rsLvd.png&quot; rel=&quot;nofollow&quot; target=&quot;_NEW&quot;&gt;\nhttp://i.imgur.com/r9rsLvd.png&lt;/a&gt; &lt;a href=&quot;\nhttp://i.imgur.com/SX5SpxN.png&quot; rel=&quot;nofollow&quot; target=&quot;_NEW&quot;&gt;\nhttp://i.imgur.com/SX5SpxN.png&lt;/a&gt; &lt;a href=&quot;\nhttp://i.imgur.com/jHrJLTb.png&quot; rel=&quot;nofollow&quot; target=&quot;_NEW&quot;&gt;\nhttp://i.imgur.com/jHrJLTb.png&lt;/a&gt; &lt;a href=&quot;\nhttp://i.imgur.com/DNaANsc.png&quot; rel=&quot;nofollow&quot; target=&quot;_NEW&quot;&gt;\nhttp://i.imgur.com/DNaANsc.png&lt;/a&gt; &lt;a href=&quot;\nhttp://i.imgur.com/KVAczMG.png&quot; rel=&quot;nofollow&quot; target=&quot;_NEW&quot;&gt;\nhttp://i.imgur.com/KVAczMG.png&lt;/a&gt; &lt;a href=&quot;\nhttp://i.imgur.com/uCgtsbx.png&quot; rel=&quot;nofollow&quot; target=&quot;_NEW&quot;&gt;\nhttp://i.imgur.com/uCgtsbx.png&lt;/a&gt; &lt;a href=&quot;\nhttp://i.imgur.com/YQJ4owQ.png&quot; rel=&quot;nofollow&quot; target=&quot;_NEW&quot;&gt;\nhttp://i.imgur.com/YQJ4owQ.png&lt;/a&gt;","torrent":{"xt":"urn:btih:eac2028d86ca353a9799b526a2545c81932a31a4","amp;dn":"Goreyan+Nu+Daffa+Karo+%282014%29+720p+-+x264+%5BDDR-ExclusivE%5D","amp;tr":["udp%3A%2F%2Ftracker.openbittorrent.com%3A80","udp%3A%2F%2Fopen.demonii.com%3A1337","udp%3A%2F%2Ftracker.coppersurfer.tk%3A6969","udp%3A%2F%2Fexodus.desync.com%3A6969"],"infoHash":"eac2028d86ca353a9799b526a2545c81932a31a4","infoHashBuffer":{"type":"Buffer","data":[234,194,2,141,134,202,53,58,151,153,181,38,162,84,92,129,147,42,49,164]},"announce":[],"urlList":[]}}